<svg width="20" height="20" viewBox="0 0 20 20" fill="none" xmlns="http://www.w3.org/2000/svg">
<path d="M7.525 11.6667C7.2 11.1917 7.01666 10.6167 7.01666 10C7.01666 8.35 8.35 7.01667 10 7.01667C11.65 7.01667 12.9833 8.35 12.9833 10C12.9833 11.65 11.65 12.9833 10 12.9833" stroke="#8A8B8C" stroke-width="1.5" stroke-linecap="round" stroke-linejoin="round"/>
<path d="M14.6333 4.65C13.225 3.65 11.6417 3.10833 9.99999 3.10833C7.05833 3.10833 4.31666 4.84167 2.40833 7.84167C1.65833 9.01667 1.65833 10.9917 2.40833 12.1667C4.31666 15.1667 7.05833 16.9 9.99999 16.9C12.9417 16.9 15.6833 15.1667 17.5917 12.1667C18.3417 10.9917 18.3417 9.01667 17.5917 7.84167" stroke="#8A8B8C" stroke-width="1.5" stroke-linecap="round" stroke-linejoin="round"/>
</svg>
