<svg width="20" height="20" viewBox="0 0 20 20" fill="none" xmlns="http://www.w3.org/2000/svg">
<path d="M5 8.33333V6.66667C5 3.90833 5.83333 1.66667 10 1.66667C14.1667 1.66667 15 3.90833 15 6.66667V8.33333" stroke="#8A8B8C" stroke-width="1.5" stroke-linecap="round" stroke-linejoin="round"/>
<path d="M7.91667 13.3333C7.91667 14.4833 8.85001 15.4167 10 15.4167C11.15 15.4167 12.0833 14.4833 12.0833 13.3333C12.0833 12.1833 11.15 11.25 10 11.25" stroke="#8A8B8C" stroke-width="1.5" stroke-linecap="round" stroke-linejoin="round"/>
<path d="M18.3333 14.1667V12.5C18.3333 9.16667 17.5 8.33333 14.1667 8.33333H5.83334C2.50001 8.33333 1.66667 9.16667 1.66667 12.5V14.1667C1.66667 17.5 2.50001 18.3333 5.83334 18.3333H14.1667C15.6333 18.3333 16.6167 18.175 17.2583 17.7083" stroke="#8A8B8C" stroke-width="1.5" stroke-linecap="round" stroke-linejoin="round"/>
</svg>
